<svg width="20" height="21" viewBox="0 0 20 21" fill="none" xmlns="http://www.w3.org/2000/svg">
<path fill-rule="evenodd" clip-rule="evenodd" d="M15.0959 8.54794C15.0959 12.1643 12.1643 15.0959 8.54794 15.0959C4.93161 15.0959 2 12.1643 2 8.54794C2 4.93161 4.93161 2 8.54794 2C12.1643 2 15.0959 4.93161 15.0959 8.54794ZM13.24 15.6942C11.8931 16.5803 10.2807 17.0959 8.54794 17.0959C3.82704 17.0959 0 13.2688 0 8.54794C0 3.82704 3.82704 0 8.54794 0C13.2688 0 17.0959 3.82704 17.0959 8.54794C17.0959 10.8104 16.2169 12.8676 14.7818 14.3966L19.201 18.5001C19.6057 18.8759 19.6291 19.5086 19.2533 19.9133C18.8775 20.318 18.2448 20.3415 17.8401 19.9657L13.24 15.6942Z" fill="white"/>
</svg>
